#!OML:ASF F:\VICON\USERDATA\INSTALL\rory3\rory3.ASF
:FULLY-SPECIFIED
:DEGREES
110
root -0.894038 14.9369 -11.5506 20.2866 -3.04498 -11.1319
lowerback -2.05124 -0.565241 11.8569
upperback -5.40144 -0.484187 6.02276
thorax -4.61062 -0.60522 -0.282998
lowerneck -16.4691 1.63025 -1.79156
upperneck 12.0147 3.22879 -3.8917
head 6.39682 1.13994 -0.630968
rclavicle 1.78906e-014 -3.97569e-014
rhumerus -48.6427 27.7586 -89.6934
rradius 65.156
rwrist 19.8787
rhand -26.3009 -49.7521
rfingers 7.12502
rthumb 0.255126 280.268
lclavicle 1.78906e-014 -3.97569e-014
lhumerus -32.3657 -20.8721 101.228
lradius 74.1307
lwrist 8.81008
lhand -36.1454 -46.7776
lfingers 7.12502
lthumb -9.25009 -17.0005
rfemur -50.4728 8.15632 35.9092
rtibia 73.4775
rfoot -33.0693 -20.4467
rtoes -12.6361
lfemur -49.2904 10.5245 -10.6829
ltibia 104.809
lfoot -21.0233 9.88356
ltoes -4.06434
111
root -0.930998 14.8445 -11.1757 20.2534 -2.76035 -12.1658
lowerback -1.70017 -0.393908 12.6635
upperback -5.3512 -0.183074 6.28467
thorax -4.75098 -0.48729 -0.443635
lowerneck -15.9389 1.49085 -2.00798
upperneck 11.2014 2.98846 -3.59091
head 6.03642 1.06554 -0.529578
rclavicle 1.799e-014 -1.51076e-014
rhumerus -47.6941 29.1223 -90.5387
rradius 65.4084
rwrist 20.9122
rhand -25.3028 -48.5672
rfingers 7.12502
rthumb 1.21913 281.457
lclavicle 1.799e-014 -1.51076e-014
lhumerus -34.1638 -20.7003 101.63
lradius 74.3408
lwrist 7.13281
lhand -36.823 -46.5536
lfingers 7.12502
lthumb -9.90386 -16.8066
rfemur -48.4902 8.30905 37.2956
rtibia 73.349
rfoot -34.6407 -21.0668
rtoes -12.9797
lfemur -54.03 10.876 -9.53192
ltibia 106.257
lfoot -22.5422 10.7238
ltoes -11.6568
112
root -0.966672 14.7746 -10.7736 20.1173 -3.0302 -12.5756
lowerback -1.0993 -0.0146396 12.7853
upperback -5.19139 0.413208 6.21257
thorax -4.86299 -0.19842 -0.601552
lowerneck -16.7676 1.20815 -1.88379
upperneck 11.1672 2.58468 -3.45148
head 6.15811 0.878157 -0.540735
rclavicle 1.54058e-014 -1.43125e-014
rhumerus -46.3845 30.1758 -91.2425
rradius 65.5505
rwrist 22.1139
rhand -24.8765 -46.7848
rfingers 7.12502
rthumb 1.63085 283.242
lclavicle 1.54058e-014 -1.43125e-014
lhumerus -35.8887 -21.0323 101.914
lradius 74.7612
lwrist 6.07189
lhand -37.2519 -46.6184
lfingers 7.12502
lthumb -10.3177 -16.8915
rfemur -46.2144 8.54831 37.8578
rtibia 73.1187
rfoot -35.9972 -21.585
rtoes -13.8697
lfemur -57.9538 11.0924 -9.37287
ltibia 106.725
lfoot -21.6686 11.152
ltoes -8.78806
113
root -1.00302 14.7223 -10.3513 19.9704 -3.48904 -12.3447
lowerback -0.935695 0.324117 12.2707
upperback -5.04805 0.861555 6.00976
thorax -4.74588 0.0503302 -0.556466
lowerneck -17.0412 1.00413 -1.92972
upperneck 10.9799 2.2915 -3.24936
head 6.137 0.752346 -0.497501
rclavicle -1.78906e-015 5.96354e-014
rhumerus -45.1357 31.8136 -92.1576
rradius 65.6089
rwrist 22.9417
rhand -25.1229 -45.6592
rfingers 7.12502
rthumb 1.39287 284.366
lclavicle -1.78906e-015 5.96354e-014
lhumerus -37.9254 -20.9915 102.18
lradius 75.4105
lwrist 5.25545
lhand -37.3564 -47.5201
lfingers 7.12502
lthumb -10.4185 -17.7983
rfemur -43.8455 8.65767 37.6772
rtibia 72.8152
rfoot -37.2572 -21.9589
rtoes -14.5156
lfemur -61.4402 10.8795 -10.0663
ltibia 106.377
lfoot -21.9521 12.1212
ltoes -11.0275
114
root -1.03904 14.693 -9.90977 20.015 -3.91806 -12.0124
lowerback -1.12089 0.695667 11.6464
upperback -4.941 1.29503 5.78557
thorax -4.47474 0.300903 -0.469016
lowerneck -17.4682 0.806084 -2.16323
upperneck 11.043 2.0264 -2.7788
head 6.21686 0.648226 -0.3348
rclavicle -4.87022e-015 0
rhumerus -44.2941 33.1812 -92.8782
rradius 66.8995
rwrist 23.8609
rhand -24.6063 -45.0619
rfingers 7.12502
rthumb 1.89184 284.967
lclavicle -4.87022e-015 0
lhumerus -39.9994 -20.8801 102.378
lradius 76.3084
lwrist 4.64978
lhand -37.0733 -47.5787
lfingers 7.12502
lthumb -10.1454 -17.8433
rfemur -41.4799 8.74572 37.3573
rtibia 72.2307
rfoot -38.2809 -22.4177
rtoes -15.3994
lfemur -65.0374 10.4189 -10.8359
ltibia 105.333
lfoot -21.9286 12.4579
ltoes -10.7998
115
root -1.07309 14.6629 -9.47647 20.5625 -4.28941 -12.0487
lowerback -1.49544 1.09079 11.3492
upperback -5.00544 1.7583 5.64892
thorax -4.28432 0.54618 -0.456019
lowerneck -17.8574 0.631953 -2.33452
upperneck 10.9508 1.77272 -2.30802
head 6.24283 0.556858 -0.181466
rclavicle -2.31584e-014 2.38542e-015
rhumerus -43.0754 34.8735 -93.6983
rradius 67.6162
rwrist 24.5192
rhand -24.2122 -43.9262
rfingers 7.12502
rthumb 2.27242 286.106
lclavicle -2.31584e-014 2.38542e-015
lhumerus -42.1028 -20.6289 102.404
lradius 77.5195
lwrist 4.35961
lhand -36.3716 -46.4266
lfingers 7.12502
lthumb -9.46841 -16.6593
rfemur -39.6797 9.06238 37.3729
rtibia 71.5302
rfoot -39.1834 -22.6338
rtoes -16.069
lfemur -69.1687 10.1259 -11.1698
ltibia 103.776
lfoot -21.8588 11.9949
ltoes -9.45318
116
root -1.11761 14.6334 -9.05253 21.0072 -3.95302 -11.8977
lowerback -1.63261 1.17851 10.9355
upperback -5.26568 1.8761 5.52082
thorax -4.47452 0.604653 -0.364291
lowerneck -17.6989 0.470473 -2.29798
upperneck 10.4008 1.47744 -1.98976
head 6.03668 0.453637 -0.116936
rclavicle 1.88845e-014 -3.18055e-015
rhumerus -42.2101 36.7197 -94.7885
rradius 68.4478
rwrist 25.3856
rhand -24.7301 -42.1273
rfingers 7.12502
rthumb 1.77223 287.9
lclavicle 1.88845e-014 -3.18055e-015
lhumerus -44.4585 -20.3666 102.369
lradius 78.912
lwrist 4.34311
lhand -36.296 -45.5352
lfingers 7.12502
lthumb -9.39543 -15.7646
rfemur -37.8901 8.89543 37.5206
rtibia 70.6792
rfoot -40.0123 -22.8998
rtoes -16.7009
lfemur -72.914 9.21645 -11.3353
ltibia 101.566
lfoot -22.0077 11.3381
ltoes -8.35144
